<svg xmlns="http://www.w3.org/2000/svg" viewBox="0 0 315 80" width="315" height="80" role="img" aria-labelledby="hoocowork-light-title">
  <title id="hoocowork-light-title">HooCowork lockup — light</title>
  <style>
    @keyframes hoo-ping { 0% { transform: scale(1); opacity: 0.55; } 70%, 100% { transform: scale(2.8); opacity: 0; } }
    .ping { transform-box: fill-box; transform-origin: center; animation: hoo-ping 1.8s ease-out infinite; }
  </style>
  <rect width="315" height="80" rx="16" fill="#FAFAFA"/>
  <line x1="30" y1="24" x2="30" y2="56" stroke="#09090B" stroke-width="4" stroke-linecap="round"/>
  <path d="M 30,42 A 12,12 0 0 1 54,42 L 54,56" fill="none" stroke="#09090B" stroke-width="4" stroke-linecap="round"/>
  <circle cx="71" cy="44" r="12" fill="none" stroke="#09090B" stroke-width="4"/>
  <circle cx="95" cy="44" r="12" fill="none" stroke="#09090B" stroke-width="4"/>
  <polygon points="83,41 86,44 83,47 80,44" fill="#00F0FF"/>
  <path d="M 112,32 A 16,16 0 0 1 112,56" fill="none" stroke="#00F0FF" stroke-width="3" stroke-linecap="round"/>
  <line x1="130" y1="30" x2="130" y2="60" stroke="#E4E4E7" stroke-width="2" stroke-linecap="round"/>
  <path d="M151.088 56.36Q147.488 56.36 145.328 54.344Q143.168 52.328 143.168 48.8V43.4Q143.168 39.872 145.328 37.856Q147.488 35.84 151.088 35.84Q154.508 35.84 156.614 37.676Q158.72 39.512 158.828 42.68H155.588Q155.48 40.772000000000006 154.29199999999997 39.746Q153.10399999999998 38.72 151.088 38.72Q148.964 38.72 147.68599999999998 39.926Q146.408 41.132000000000005 146.408 43.364000000000004V48.8Q146.408 51.032 147.68599999999998 52.256Q148.964 53.48 151.088 53.48Q153.10399999999998 53.48 154.29199999999997 52.436Q155.48 51.392 155.588 49.52H158.828Q158.72 52.688 156.614 54.524Q154.508 56.36 151.088 56.36ZM172.4 56.288Q168.83599999999998 56.288 166.73 54.2Q164.624 52.112 164.624 48.368V43.832Q164.624 40.052 166.712 37.982Q168.79999999999998 35.912000000000006 172.4 35.912000000000006Q176.0 35.912000000000006 178.088 37.982Q180.176 40.052 180.176 43.832V48.368Q180.176 52.112 178.07 54.2Q175.964 56.288 172.4 56.288ZM172.4 53.408Q174.524 53.408 175.73 52.22Q176.93599999999998 51.032 176.93599999999998 48.728V43.472Q176.93599999999998 41.168 175.73 39.980000000000004Q174.524 38.792 172.4 38.792Q170.31199999999998 38.792 169.088 39.980000000000004Q167.864 41.168 167.864 43.472V48.728Q167.864 51.032 169.088 52.22Q170.31199999999998 53.408 172.4 53.408ZM187.55599999999998 56.0 184.316 36.2H187.124L189.14 50.168Q189.248 50.96 189.356 51.914Q189.464 52.868 189.5 53.48Q189.572 52.868 189.66199999999998 51.914Q189.75199999999998 50.96 189.896 50.168L192.38 36.2H195.61999999999998L198.10399999999998 50.168Q198.248 50.96 198.374 51.914Q198.5 52.868 198.536 53.48Q198.60799999999998 52.868 198.71599999999998 51.914Q198.82399999999998 50.96 198.932 50.168L201.01999999999998 36.2H203.684L200.29999999999998 56.0H196.736L194.468 42.32Q194.32399999999998 41.312 194.19799999999998 40.178Q194.072 39.044 194.0 38.432Q193.964 39.044 193.82 40.178Q193.676 41.312 193.49599999999998 42.32L191.11999999999998 56.0ZM215.6 56.288Q212.03599999999997 56.288 209.92999999999998 54.2Q207.82399999999998 52.112 207.82399999999998 48.368V43.832Q207.82399999999998 40.052 209.91199999999998 37.982Q211.99999999999997 35.912000000000006 215.6 35.912000000000006Q219.2 35.912000000000006 221.28799999999998 37.982Q223.37599999999998 40.052 223.37599999999998 43.832V48.368Q223.37599999999998 52.112 221.26999999999998 54.2Q219.164 56.288 215.6 56.288ZM215.6 53.408Q217.724 53.408 218.92999999999998 52.22Q220.13599999999997 51.032 220.13599999999997 48.728V43.472Q220.13599999999997 41.168 218.92999999999998 39.980000000000004Q217.724 38.792 215.6 38.792Q213.51199999999997 38.792 212.28799999999998 39.980000000000004Q211.064 41.168 211.064 43.472V48.728Q211.064 51.032 212.28799999999998 52.22Q213.51199999999997 53.408 215.6 53.408ZM230.432 56.0V36.2H233.67199999999997V39.980000000000004H233.74399999999997Q233.99599999999998 38.072 235.36399999999998 36.956Q236.73199999999997 35.84 239.03599999999997 35.84Q242.13199999999998 35.84 243.80599999999998 37.694Q245.47999999999996 39.548 245.47999999999996 42.968V44.66H242.23999999999998V42.968Q242.23999999999998 38.647999999999996 238.02799999999996 38.647999999999996Q235.90399999999997 38.647999999999996 234.78799999999995 39.872Q233.67199999999997 41.096000000000004 233.67199999999997 43.4V56.0ZM251.49199999999996 56.0V29.720000000000002H254.73199999999997V44.372H258.51199999999994L264.056 36.2H267.76399999999995L261.392 45.632000000000005L268.12399999999997 56.0H264.344L258.58399999999995 47.18H254.73199999999997V56.0Z" fill="#27272A"/>
  <circle class="ping" cx="282.1" cy="46.1" r="4" fill="none" stroke="#00F0FF" stroke-width="1.6"/>
  <circle cx="282.1" cy="46.1" r="4" fill="#00F0FF"/>
</svg>
